<svg width="900" height="900" viewBox="0 0 900 900" fill="none" xmlns="http://www.w3.org/2000/svg">
  <defs>
    <filter id="shadow" x="140" y="190" width="620" height="520" filterUnits="userSpaceOnUse" color-interpolation-filters="sRGB">
      <feDropShadow dx="0" dy="22" stdDeviation="24" flood-color="#7A532E" flood-opacity="0.24"/>
    </filter>
    <linearGradient id="outer" x1="250" y1="305" x2="570" y2="618" gradientUnits="userSpaceOnUse">
      <stop stop-color="#F0B14A"/>
      <stop offset="1" stop-color="#B96E1F"/>
    </linearGradient>
    <linearGradient id="inner" x1="316" y1="350" x2="557" y2="571" gradientUnits="userSpaceOnUse">
      <stop stop-color="#F7DC7D"/>
      <stop offset="1" stop-color="#C18B3A"/>
    </linearGradient>
  </defs>
  <g filter="url(#shadow)">
    <path d="M289 304c108-47 254-3 334 95 66 81 74 179 15 239-59 59-156 66-259 27-99-38-179-117-191-205-11-77 28-125 101-156Z" fill="url(#outer)"/>
    <path d="M333 357c84-35 187-2 246 68 49 58 57 126 16 171-40 44-111 52-188 24-75-27-137-84-148-148-9-51 18-86 74-115Z" fill="url(#inner)"/>
    <path d="M314 330c65 9 126 36 177 79" stroke="#FCEFBA" stroke-width="9" stroke-linecap="round" opacity="0.72"/>
    <path d="M408 569c56 5 115-5 164-28" stroke="#94561E" stroke-width="20" stroke-linecap="round" opacity="0.28"/>
    <circle cx="442" cy="476" r="14" fill="#75431A" opacity="0.36"/>
    <circle cx="520" cy="427" r="12" fill="#75431A" opacity="0.3"/>
    <circle cx="564" cy="516" r="10" fill="#75431A" opacity="0.3"/>
  </g>
</svg>
