<svg width="900" height="900" viewBox="0 0 900 900" fill="none" xmlns="http://www.w3.org/2000/svg">
  <defs>
    <filter id="shadow" x="130" y="180" width="640" height="560" filterUnits="userSpaceOnUse" color-interpolation-filters="sRGB">
      <feDropShadow dx="0" dy="24" stdDeviation="24" flood-color="#7E5B35" flood-opacity="0.22"/>
    </filter>
    <linearGradient id="broth" x1="263" y1="343" x2="631" y2="625" gradientUnits="userSpaceOnUse">
      <stop stop-color="#E8A85E"/>
      <stop offset="1" stop-color="#B56B2D"/>
    </linearGradient>
    <linearGradient id="leaf" x1="502" y1="322" x2="646" y2="434" gradientUnits="userSpaceOnUse">
      <stop stop-color="#89C453"/>
      <stop offset="1" stop-color="#4D8E3F"/>
    </linearGradient>
  </defs>
  <g filter="url(#shadow)">
    <path d="M263 396c39-88 166-145 286-109 117 35 187 146 143 246-44 101-170 147-292 118-125-31-190-148-149-255 3 0 8 0 12 0Z" fill="url(#broth)"/>
    <path d="M338 365c100-37 217-3 280 72 51 60 59 130 21 186-16 24-39 45-68 58 30-62 17-134-38-192-58-62-155-97-244-90 14-12 30-24 49-34Z" fill="#D98742" opacity="0.45"/>
    <ellipse cx="582" cy="381" rx="54" ry="34" transform="rotate(19 582 381)" fill="url(#leaf)"/>
    <ellipse cx="529" cy="343" rx="36" ry="22" transform="rotate(-18 529 343)" fill="#6EAF46"/>
    <ellipse cx="454" cy="520" rx="78" ry="49" transform="rotate(-16 454 520)" fill="#F0C386" opacity="0.55"/>
    <path d="M357 635c78 22 175 22 249-1" stroke="#955E28" stroke-width="22" stroke-linecap="round" opacity="0.24"/>
    <path d="M382 315c54 0 105 13 150 38" stroke="#F7D7AD" stroke-width="10" stroke-linecap="round" opacity="0.7"/>
  </g>
</svg>
