<svg width="900" height="900" viewBox="0 0 900 900" fill="none" xmlns="http://www.w3.org/2000/svg">
  <defs>
    <radialGradient id="bowlOuter" cx="0" cy="0" r="1" gradientUnits="userSpaceOnUse" gradientTransform="translate(450 450) rotate(90) scale(330)">
      <stop stop-color="#ffffff"/>
      <stop offset="1" stop-color="#e6e3e0"/>
    </radialGradient>
    <linearGradient id="soup" x1="286" y1="312" x2="610" y2="632" gradientUnits="userSpaceOnUse">
      <stop stop-color="#ffde7b"/>
      <stop offset="1" stop-color="#f0b541"/>
    </linearGradient>
    <filter id="shadow4" x="100" y="110" width="700" height="700" filterUnits="userSpaceOnUse" color-interpolation-filters="sRGB">
      <feDropShadow dx="0" dy="24" stdDeviation="24" flood-color="#998a7b" flood-opacity="0.22"/>
    </filter>
  </defs>
  <g filter="url(#shadow4)">
    <circle cx="450" cy="450" r="275" fill="url(#bowlOuter)"/>
    <circle cx="450" cy="450" r="236" fill="#F8F6F4"/>
    <circle cx="450" cy="450" r="196" fill="url(#soup)"/>
  </g>
  <ellipse cx="420" cy="426" rx="55" ry="42" fill="#fff3b2" opacity="0.45"/>
  <ellipse cx="540" cy="508" rx="64" ry="48" fill="#e7a730" opacity="0.36"/>
  <circle cx="385" cy="500" r="30" fill="#d7ac55"/>
  <circle cx="507" cy="380" r="28" fill="#d3a14b"/>
  <path d="M378 332c41 17 78 46 108 82" stroke="#5d9e58" stroke-width="18" stroke-linecap="round"/>
  <path d="M528 336c-24 30-42 66-51 104" stroke="#72b260" stroke-width="16" stroke-linecap="round"/>
  <path d="M312 618c88 20 179 20 270 0" stroke="#ffffff" stroke-width="10" stroke-linecap="round" opacity="0.34"/>
</svg>
